<?xml version="1.0" standalone="yes"?>
<svg xmlns="http://www.w3.org/2000/svg" width="250" height="251">
<path style="fill:#00020f; stroke:none;" d="M0 0L1 68L0 184L2 184L2 66C2 56.2195 0.26472 44.5467 2.45988 35C5.11987 23.4317 14.4216 12.989 24.4637 7.08643C33.441 1.8098 43.8591 2 54 2L96 2C87.6425 -1.50693 74.0596 1 65 1C43.3092 1 21.723 0 0 0z"/>
<path style="fill:#10052c; stroke:none;" d="M40 0C44.7199 1.98055 50.9198 1 56 1L88 1C83.2801 -0.98056 77.0802 0 72 0L40 0z"/>
<path style="fill:#350d49; stroke:none;" d="M88 0C93.7073 2.39487 101.846 1 108 1L152 1C146.293 -1.39485 138.154 0 132 0L88 0z"/>
<path style="fill:#4a0c45; stroke:none;" d="M152 0C157.462 2.29214 165.113 1 171 1L211 1C205.538 -1.29214 197.887 0 192 0L152 0z"/>
<path style="fill:#4d003b; stroke:none;" d="M208 1C213.098 4.07445 219.594 4.5703 225 7.27623C230.204 9.88106 233.942 14.302 239 17C237.378 11.0793 231.024 7.08548 226 4C228.442 2.95305 229.535 2.20222 231 0C223.302 0 215.595 -0.410049 208 1z"/>
<path style="fill:#47022f; stroke:none;" d="M226 4C230.955 8.23459 238.396 11.7271 238 19C245.242 24.5016 247.819 34.2583 248 43C250.796 39.309 250 34.4848 250 30L250 0C240.999 0 233.908 -0.669266 226 4z"/>
<path style="fill:#2e0f2e; stroke:none;" d="M96 1C99.6987 2.55202 104.017 2 108 2L130 2L208 2C204.301 0.447968 199.983 1 196 1L174 1L96 1z"/>
<path style="fill:#000000; stroke:none;" d="M0 251C45.5322 251 91.5085 252.878 136.996 250.981C140.737 250.825 143.454 248.656 147.039 248.144C153.148 247.27 159.833 248 166 248L196 248C202.685 248 209.535 248.556 216 246.536C220.853 245.02 226.516 243.77 230 240L224 242L224 239C204.381 241.588 184.782 241 165 241L84 241C66.0351 241 41.9207 245.398 26.0394 235.546C8.72944 224.809 9 206.904 9 189L9 70C9 51.4284 5.99246 32.3905 21.1698 18.6157C35.4688 5.63809 55.1506 9 73 9L188 9C195.471 9 203.619 8.09262 211 9.32562C222.915 11.316 233.023 20.3591 238 31C239.797 31 239.521 30.9857 241 30C241.522 35.9803 244.001 40.9064 243 47C246.959 51.1937 246 56.537 246 62L246 93L246 161C246 172.246 246.731 183.768 245.946 194.985C245.317 203.966 241.6 212.972 241 222L239 221C239.235 223.691 239.607 225.689 241 228C251.256 211.747 248 191.414 248 173L248 59C248 40.0413 247.776 22.6266 230.91 10.2199C218.561 1.13553 203.473 2 189 2L117 2L62 2C52.0929 2 40.6191 0.745865 31.0008 3.54553C23.7298 5.66196 16.2724 11.6877 11.385 17.3248C1.7512 28.4365 2 40.1638 2 54L2 85C2 115.929 3.1198 147.091 1.98148 177.996C1.82864 182.146 0.0754031 185.821 0.00462963 190.004C-0.0600792 193.828 -0.442391 198.058 0.260031 201.83C0.978526 205.689 3.04505 208.911 2.90278 212.996C2.78581 216.355 0.618561 218.854 0.143519 222.09C-1.21626 231.351 0 241.637 0 251z"/>
<path style="fill:#00193d; stroke:none;" d="M37 9C38.2483 9.68475 38.5485 9.74881 40 10C38.7516 9.31519 38.4516 9.25122 37 9z"/>
<path style="fill:#0550aa; stroke:none;" d="M40 9C41.2483 9.68474 41.5485 9.74881 43 10C41.7516 9.31519 41.4516 9.25122 40 9z"/>
<path style="fill:#007aff; stroke:none;" d="M43 9.51775C28.5129 10.6058 14.1294 20.354 10.6798 35C9.32566 40.7492 9.92933 46.195 9.99614 52C10.1074 61.6639 10 71.3354 10 81L10 174C10 190.195 5.73199 210.87 15.3843 224.999C28.0008 243.468 47.5448 240 67 240L165 240L196 240C200.314 240.007 204.717 240.857 209 240.37C223.88 238.68 236.589 227.853 239.714 213C240.858 207.561 240.027 202.475 240.001 197C239.954 187.334 240 177.666 240 168L240 74C240 56.3982 243.911 36.7037 232.251 22.0394C219.499 6.00281 198.907 10 181 10L85 10C71.2301 10 56.6545 8.49225 43 9.51775z"/>
<path style="fill:#008cff; stroke:none;" d="M46 9C50.7199 10.9806 56.9198 10 62 10L93 10L203 10C198.28 8.01944 192.08 9 187 9L156 9L46 9z"/>
<path style="fill:#054084; stroke:none;" d="M208 9C209.248 9.68477 209.549 9.74881 211 10C209.752 9.31517 209.452 9.25124 208 9z"/>
<path style="fill:#00112f; stroke:none;" d="M211.667 9.33333C211.222 9.77779 212.278 9.72221 212.333 9.66667C212.778 9.22221 211.722 9.27776 211.667 9.33333z"/>
<path style="fill:#005dbe; stroke:none;" d="M35.6667 10.3333C35.2223 10.7777 36.2778 10.7222 36.3333 10.6667C36.7778 10.2222 35.7222 10.2778 35.6667 10.3333z"/>
<path style="fill:#00397d; stroke:none;" d="M213 10C214.248 10.6848 214.548 10.7488 216 11C214.752 10.3152 214.452 10.2512 213 10z"/>
<path style="fill:#062147; stroke:none;" d="M31 11L32 12L31 11z"/>
<path style="fill:#006adb; stroke:none;" d="M32.6667 11.3333C32.2222 11.7778 33.2778 11.7222 33.3333 11.6667C33.7778 11.2222 32.7222 11.2778 32.6667 11.3333z"/>
<path style="fill:#004e9d; stroke:none;" d="M217 11L218 12L217 11z"/>
<path style="fill:#02264d; stroke:none;" d="M218 11L219 12L218 11z"/>
<path style="fill:#012a58; stroke:none;" d="M29 12L30 13L29 12z"/>
<path style="fill:#005cba; stroke:none;" d="M30 12L31 13L30 12z"/>
<path style="fill:#0055b7; stroke:none;" d="M219 12L220 13L219 12z"/>
<path style="fill:#002753; stroke:none;" d="M220 12L221 13L220 12z"/>
<path style="fill:#00274f; stroke:none;" d="M27 13L28 14L27 13z"/>
<path style="fill:#0053b0; stroke:none;" d="M28 13L29 14L28 13z"/>
<path style="fill:#0055ab; stroke:none;" d="M221 13L222 14L221 13z"/>
<path style="fill:#024aa0; stroke:none;" d="M26 14L27 15L26 14z"/>
<path style="fill:#00478c; stroke:none;" d="M24 15L25 16L24 15z"/>
<path style="fill:#063a7a; stroke:none;" d="M225 15L226 16L225 15z"/>
<path style="fill:#0354b7; stroke:none;" d="M226 16L227 17L226 16z"/>
<path style="fill:#0051b5; stroke:none;" d="M22 17L23 18L22 17z"/>
<path style="fill:#0057b5; stroke:none;" d="M227 17L228 18L227 17z"/>
<path style="fill:#002248; stroke:none;" d="M229 18L230 19L229 18z"/>
<path style="fill:#003d82; stroke:none;" d="M19 19L20 20L19 19z"/>
<path style="fill:#03366d; stroke:none;" d="M230 19L231 20L230 19z"/>
<path style="fill:#002b63; stroke:none;" d="M231 20L232 21L231 20z"/>
<path style="fill:#0359bb; stroke:none;" d="M17 22L18 23L17 22z"/>
<path style="fill:#0451ae; stroke:none;" d="M232 22L233 23L232 22z"/>
<path style="fill:#011f45; stroke:none;" d="M233 22L234 23L233 22z"/>
<path style="fill:#01418d; stroke:none;" d="M233 23L234 24L233 23z"/>
<path style="fill:#084e99; stroke:none;" d="M15 24L16 25L15 24z"/>
<path style="fill:#0267d7; stroke:none;" d="M234.333 24.6667C234.278 24.7222 234.222 25.7778 234.667 25.3333C234.722 25.2777 234.778 24.2223 234.333 24.6667z"/>
<path style="fill:#26031b; stroke:none;" d="M243.333 24.6667C243.278 24.7222 243.222 25.7778 243.667 25.3333C243.722 25.2778 243.778 24.2223 243.333 24.6667z"/>
<path style="fill:#002551; stroke:none;" d="M14 25L15 26L14 25z"/>
<path style="fill:#0056b5; stroke:none;" d="M14 26L15 27L14 26z"/>
<path style="fill:#0056b7; stroke:none;" d="M235 26L236 27L235 26z"/>
<path style="fill:#013162; stroke:none;" d="M13 27L14 28L13 27z"/>
<path style="fill:#052f64; stroke:none;" d="M236 27L237 28L236 27z"/>
<path style="fill:#00326b; stroke:none;" d="M12 29L13 30L12 29z"/>
<path style="fill:#002f60; stroke:none;" d="M237 29L238 30L237 29z"/>
<path style="fill:#010000; stroke:none;" d="M240 30C239.045 34.4668 240.756 38.4895 240.961 43C241.413 52.9597 241 63.0298 241 73L241 174C241 193.094 245.051 216.101 229.826 230.7C225.514 234.835 220.327 237.464 215 240C218.026 240.691 220.963 239.625 224 239L224 242C230.029 240.691 238.488 235.544 239.933 229C240.488 226.487 239.36 223.498 239 221L241 222C242.095 213.402 245.33 204.581 245.946 195.961C246.793 184.098 246 171.895 246 160L246 90L246 59C246 54.5031 246.951 49.8495 243 47C244.338 41.1761 242.833 35.2128 240 30z"/>
<path style="fill:#032954; stroke:none;" d="M11 31L12 32L11 31z"/>
<path style="fill:#00294e; stroke:none;" d="M238 31L239 32L238 31z"/>
<path style="fill:#00254a; stroke:none;" d="M10 34L11 35L10 34z"/>
<path style="fill:#04254e; stroke:none;" d="M239 34L240 35L239 34z"/>
<path style="fill:#004ca1; stroke:none;" d="M10 35L11 36L10 35z"/>
<path style="fill:#014fa5; stroke:none;" d="M239 35L240 36L239 35z"/>
<path style="fill:#002e5e; stroke:none;" d="M9 37L9 40C9.69612 38.4463 9.6961 38.5537 9 37z"/>
<path style="fill:#003a74; stroke:none;" d="M240.333 38.6667C240.278 38.7222 240.222 39.7778 240.667 39.3333C240.722 39.2777 240.778 38.2223 240.333 38.6667z"/>
<path style="fill:#005dc2; stroke:none;" d="M9 40L9 43C9.69612 41.4463 9.6961 41.5537 9 40z"/>
<path style="fill:#0056b7; stroke:none;" d="M240 40L240 43C240.696 41.4463 240.696 41.5537 240 40z"/>
<path style="fill:#360d46; stroke:none;" d="M249 42C246.386 50.8421 248 61.8049 248 71C248 92.3898 249 113.616 249 135C251.599 128.806 250 119.686 250 113L250 66C250 58.7844 251.802 48.6777 249 42z"/>
<path style="fill:#008cff; stroke:none;" d="M9 45L9 203C10.6611 199.041 10 194.26 10 190L10 167L10 85L10 59C10 54.4645 10.7687 49.2151 9 45M240 45L240 205C241.661 201.041 241 196.26 241 192L241 169L241 86L241 59C241 54.4645 241.769 49.2151 240 45z"/>
<path style="fill:#0e011a; stroke:none;" d="M0 59L0 136C2.39487 130.293 1 122.154 1 116L1 77C1 71.3809 2.18893 64.2165 0 59z"/>
<path style="fill:#008cff; stroke:none;" d="M133 62C138.715 64.398 146.831 63 153 63C147.285 60.602 139.169 62 133 62z"/>
<path style="fill:#00244e; stroke:none;" d="M78.3333 63.6667C78.2778 63.7222 78.2222 64.7778 78.6667 64.3333C78.7223 64.2777 78.7777 63.2223 78.3333 63.6667z"/>
<path style="fill:#000000; stroke:none;" d="M76 65C75.3171 73.3613 72.623 81.7552 71.0008 90C67.1893 109.371 62.9889 128.664 59 148C65.7424 149.252 72.2576 149.252 79 148C81.087 131.572 84.9341 115.272 88 99C90.9405 108.948 89.9507 121.624 90.0008 132C90.0193 135.839 89.506 144.151 92.0278 147.258C95.1082 151.053 108.176 149.716 111.185 146.427C115.021 142.235 116.937 135.153 119.15 130C123.408 120.087 130.107 109.652 132 99C132.926 103.444 131.288 107.595 130.4 112C128.857 119.651 127.66 127.377 125.986 135C125.215 138.51 123.652 142.255 124.163 145.91C125.634 156.441 144.012 158.001 147.763 167.184C148.757 169.618 147.293 172.665 146.586 175C144.677 181.31 142.35 187.543 141 194C147.693 193.273 152.549 188.708 157.83 184.861C159.881 183.368 162.351 180.729 165.015 180.523C167.963 180.295 170.784 183.113 173 184.707C178.378 188.574 183.2 193.262 190 194C188.48 188.316 186.844 182.591 184.999 177C184.134 174.377 182.313 170.917 182.929 168.09C183.569 165.153 186.751 163.337 189.001 161.71C194.945 157.412 200.757 152.853 207 149C197.995 145.221 186.069 151.325 177.225 147.397C174.104 146.011 173.295 141.955 172.424 139C170.355 131.975 168.265 124.964 166 118C160.814 124.933 156.862 139.402 156 148L143 148C145.507 128.585 149.898 109.293 153.25 90C154.371 83.5471 158.502 72.717 156.447 66.3441C155.645 63.8575 153.297 63.2398 150.96 63.0548C145.484 62.6212 134.616 61.2079 129.992 64.608C126.338 67.2949 125.014 74.0185 123.164 78C118.053 88.9987 111.355 100.349 108 112C105.462 103.418 106.203 93.8737 105.985 85C105.821 78.3121 105 71.7312 105 65C96.1126 61.8257 84.8874 61.8257 76 65z"/>
<path style="fill:#041c48; stroke:none;" d="M102.333 63.6667C102.278 63.7222 102.222 64.7778 102.667 64.3333C102.722 64.2777 102.778 63.2223 102.333 63.6667z"/>
<path style="fill:#02438b; stroke:none;" d="M130.333 63.6667C130.278 63.7222 130.222 64.7778 130.667 64.3333C130.722 64.2777 130.778 63.2223 130.333 63.6667z"/>
<path style="fill:#003a7f; stroke:none;" d="M155 63L156 64L155 63z"/>
<path style="fill:#0052a8; stroke:none;" d="M75 65L75 68C75.6961 66.4463 75.6961 66.5537 75 65z"/>
<path style="fill:#004f9e; stroke:none;" d="M105 65L105 72C106.059 69.4657 106.059 67.5343 105 65z"/>
<path style="fill:#06254c; stroke:none;" d="M157.333 65.6667C157.278 65.7222 157.222 66.7778 157.667 66.3333C157.722 66.2778 157.778 65.2222 157.333 65.6667z"/>
<path style="fill:#004da2; stroke:none;" d="M127 67L128 68L127 67z"/>
<path style="fill:#0752b8; stroke:none;" d="M157 67L157 70C157.696 68.4463 157.696 68.5537 157 67z"/>
<path style="fill:#011231; stroke:none;" d="M75.3333 68.6667C75.2778 68.7222 75.2222 69.7778 75.6667 69.3333C75.7223 69.2777 75.7777 68.2223 75.3333 68.6667z"/>
<path style="fill:#0255b8; stroke:none;" d="M126 69L127 70L126 69z"/>
<path style="fill:#0061b8; stroke:none;" d="M74.3333 70.6667C74.2778 70.7222 74.2222 71.7778 74.6667 71.3333C74.7223 71.2777 74.7777 70.2223 74.3333 70.6667z"/>
<path style="fill:#002446; stroke:none;" d="M126 70L127 71L126 70z"/>
<path style="fill:#00192b; stroke:none;" d="M156.333 70.6667C156.278 70.7222 156.222 71.7778 156.667 71.3333C156.722 71.2778 156.778 70.2222 156.333 70.6667z"/>
<path style="fill:#05244a; stroke:none;" d="M74.3333 72.6667C74.2778 72.7222 74.2222 73.7778 74.6667 73.3333C74.7223 73.2777 74.7777 72.2223 74.3333 72.6667z"/>
<path style="fill:#03244a; stroke:none;" d="M105 72L105 80C106.161 77.2301 106.161 74.7699 105 72z"/>
<path style="fill:#031a30; stroke:none;" d="M125.333 72.6667C125.278 72.7222 125.222 73.7778 125.667 73.3333C125.722 73.2777 125.778 72.2223 125.333 72.6667z"/>
<path style="fill:#024597; stroke:none;" d="M156 72L156 75C156.696 73.4463 156.696 73.5537 156 72z"/>
<path style="fill:#003b7a; stroke:none;" d="M124 74L125 75L124 74z"/>
<path style="fill:#004898; stroke:none;" d="M73 75L73 78C73.6961 76.4463 73.6961 76.5537 73 75z"/>
<path style="fill:#064596; stroke:none;" d="M123 76L124 77L123 76z"/>
<path style="fill:#052144; stroke:none;" d="M123 77L124 78L123 77z"/>
<path style="fill:#003972; stroke:none;" d="M155 77L155 80C155.696 78.4463 155.696 78.5537 155 77z"/>
<path style="fill:#002d5b; stroke:none;" d="M122.333 78.6667C122.278 78.7222 122.222 79.7778 122.667 79.3333C122.722 79.2777 122.778 78.2223 122.333 78.6667z"/>
<path style="fill:#004da5; stroke:none;" d="M72 80L72 83C72.6961 81.4463 72.6961 81.5537 72 80z"/>
<path style="fill:#002d66; stroke:none;" d="M121.333 80.6667C121.278 80.7222 121.222 81.7778 121.667 81.3333C121.722 81.2777 121.778 80.2223 121.333 80.6667z"/>
<path style="fill:#006be5; stroke:none;" d="M106 82L106 88C106.951 85.7147 106.951 84.2853 106 82z"/>
<path style="fill:#042d64; stroke:none;" d="M120 83L121 84L120 83z"/>
<path style="fill:#00468d; stroke:none;" d="M154.333 83.6667C154.278 83.7222 154.222 84.7778 154.667 84.3333C154.722 84.2778 154.778 83.2222 154.333 83.6667z"/>
<path style="fill:#01428a; stroke:none;" d="M71 85L71 88C71.6961 86.4463 71.6961 86.5537 71 85z"/>
<path style="fill:#00428c; stroke:none;" d="M119 85L120 86L119 85z"/>
<path style="fill:#0256af; stroke:none;" d="M118.333 86.6667C118.278 86.7222 118.222 87.7778 118.667 87.3333C118.722 87.2778 118.778 86.2222 118.333 86.6667z"/>
<path style="fill:#004693; stroke:none;" d="M106 88L106 96C107.161 93.2301 107.161 90.7699 106 88z"/>
<path style="fill:#023372; stroke:none;" d="M153 88L153 91C153.696 89.4463 153.696 89.5537 153 88z"/>
<path style="fill:#0050a6; stroke:none;" d="M117 89L118 90L117 89z"/>
<path style="fill:#004388; stroke:none;" d="M70 90L70 93C70.6961 91.4463 70.6961 91.5537 70 90z"/>
<path style="fill:#002343; stroke:none;" d="M117 90L118 91L117 90z"/>
<path style="fill:#0254b7; stroke:none;" d="M116 91L117 92L116 91z"/>
<path style="fill:#012c5e; stroke:none;" d="M116 92L117 93L116 92z"/>
<path style="fill:#085bc3; stroke:none;" d="M69.3333 94.6667C69.2778 94.7222 69.2222 95.7778 69.6667 95.3333C69.7222 95.2778 69.7778 94.2222 69.3333 94.6667z"/>
<path style="fill:#090f2f; stroke:none;" d="M115.333 94.6667C115.278 94.7222 115.222 95.7778 115.667 95.3333C115.722 95.2778 115.778 94.2223 115.333 94.6667z"/>
<path style="fill:#003b74; stroke:none;" d="M152.333 94.6667C152.278 94.7222 152.222 95.7778 152.667 95.3333C152.722 95.2778 152.778 94.2223 152.333 94.6667z"/>
<path style="fill:#00264f; stroke:none;" d="M69 96L69 99C69.6961 97.4463 69.6961 97.5537 69 96z"/>
<path style="fill:#061b3d; stroke:none;" d="M106 96L106 102C106.951 99.7147 106.951 98.2853 106 96z"/>
<path style="fill:#001d3c; stroke:none;" d="M114.333 96.6667C114.278 96.7222 114.222 97.7778 114.667 97.3333C114.722 97.2777 114.778 96.2223 114.333 96.6667z"/>
<path style="fill:#00468d; stroke:none;" d="M113 98L114 99L113 98z"/>
<path style="fill:#004b9b; stroke:none;" d="M68.3333 99.6667C68.2778 99.7222 68.2222 100.778 68.6667 100.333C68.7223 100.278 68.7777 99.2223 68.3333 99.6667z"/>
<path style="fill:#003369; stroke:none;" d="M88.3333 99.6667C88.2778 99.7222 88.2222 100.778 88.6667 100.333C88.7223 100.278 88.7778 99.2223 88.3333 99.6667z"/>
<path style="fill:#0b378d; stroke:none;" d="M132 99L132 102C132.696 100.446 132.696 100.554 132 99z"/>
<path style="fill:#014c9a; stroke:none;" d="M112 100L113 101L112 100z"/>
<path style="fill:#014794; stroke:none;" d="M151.333 100.667C151.278 100.722 151.222 101.778 151.667 101.333C151.722 101.278 151.778 100.222 151.333 100.667z"/>
<path style="fill:#001c43; stroke:none;" d="M68 101L68 104C68.6961 102.446 68.6961 102.554 68 101z"/>
<path style="fill:#012d5b; stroke:none;" d="M87.3333 101.667C87.2778 101.722 87.2222 102.778 87.6667 102.333C87.7223 102.278 87.7778 101.222 87.3333 101.667z"/>
<path style="fill:#004898; stroke:none;" d="M88 101C87.7535 103.121 87.7695 104.874 88 107C88.9511 104.715 88.9511 103.285 88 101z"/>
<path style="fill:#013a73; stroke:none;" d="M111.333 102.667C111.278 102.722 111.222 103.778 111.667 103.333C111.722 103.278 111.778 102.222 111.333 102.667z"/>
<path style="fill:#05459d; stroke:none;" d="M131 102L132 103L131 102z"/>
<path style="fill:#002028; stroke:none;" d="M132.333 102.667C132.278 102.722 132.222 103.778 132.667 103.333C132.722 103.278 132.778 102.222 132.333 102.667z"/>
<path style="fill:#0064d6; stroke:none;" d="M151.333 102.667C151.278 102.722 151.222 103.778 151.667 103.333C151.722 103.278 151.778 102.222 151.333 102.667z"/>
<path style="fill:#0165cd; stroke:none;" d="M131 103C130.598 104.944 130.598 105.057 131 107C131.71 105.24 131.71 104.759 131 103z"/>
<path style="fill:#004a98; stroke:none;" d="M67 104L67 107C67.6961 105.446 67.6961 105.554 67 104z"/>
<path style="fill:#00407b; stroke:none;" d="M110.333 104.667C110.278 104.722 110.222 105.778 110.667 105.333C110.722 105.278 110.778 104.222 110.333 104.667z"/>
<path style="fill:#02224a; stroke:none;" d="M150.333 104.667C150.278 104.722 150.222 105.778 150.667 105.333C150.722 105.278 150.778 104.222 150.333 104.667z"/>
<path style="fill:#2f073a; stroke:none;" d="M248 104L248 146L250 146C250 137.294 249 128.721 249 120C249 114.92 249.981 108.72 248 104z"/>
<path style="fill:#053368; stroke:none;" d="M129 106L130 107L129 106z"/>
<path style="fill:#01469b; stroke:none;" d="M150.333 106.667C150.278 106.722 150.222 107.778 150.667 107.333C150.722 107.278 150.778 106.222 150.333 106.667z"/>
<path style="fill:#013c76; stroke:none;" d="M86 107L86 110C86.6961 108.446 86.6961 108.554 86 107z"/>
<path style="fill:#0069d8; stroke:none;" d="M88 107L88 115C89.1614 112.23 89.1614 109.77 88 107z"/>
<path style="fill:#053885; stroke:none;" d="M109 107L110 108L109 107z"/>
<path style="fill:#0053ab; stroke:none;" d="M66.3333 108.667C66.2778 108.722 66.2222 109.778 66.6667 109.333C66.7222 109.278 66.7777 108.222 66.3333 108.667z"/>
<path style="fill:#004c93; stroke:none;" d="M108 109L109 110L108 109z"/>
<path style="fill:#034f9e; stroke:none;" d="M128 109L129 110L128 109z"/>
<path style="fill:#00387c; stroke:none;" d="M66.3333 110.667C66.2778 110.722 66.2222 111.778 66.6667 111.333C66.7223 111.278 66.7778 110.222 66.3333 110.667z"/>
<path style="fill:#064cac; stroke:none;" d="M107.333 110.667C107.278 110.722 107.222 111.778 107.667 111.333C107.722 111.278 107.778 110.222 107.333 110.667z"/>
<path style="fill:#003985; stroke:none;" d="M130.333 110.667C130.278 110.722 130.222 111.778 130.667 111.333C130.722 111.278 130.778 110.222 130.333 110.667z"/>
<path style="fill:#001936; stroke:none;" d="M149.333 110.667C149.278 110.722 149.222 111.778 149.667 111.333C149.722 111.278 149.778 110.222 149.333 110.667z"/>
<path style="fill:#0a285e; stroke:none;" d="M127 111L128 112L127 111z"/>
<path style="fill:#063779; stroke:none;" d="M85 112L85 115C85.6961 113.446 85.6961 113.554 85 112z"/>
<path style="fill:#0150a8; stroke:none;" d="M149 112L149 115C149.696 113.446 149.696 113.554 149 112z"/>
<path style="fill:#012b59; stroke:none;" d="M126 113L127 114L126 113z"/>
<path style="fill:#013d7a; stroke:none;" d="M65.3333 114.667C65.2778 114.722 65.2222 115.778 65.6667 115.333C65.7223 115.278 65.7778 114.222 65.3333 114.667z"/>
<path style="fill:#0052ae; stroke:none;" d="M126 114L127 115L126 114z"/>
<path style="fill:#024c97; stroke:none;" d="M129 114L129 117C129.696 115.446 129.696 115.554 129 114z"/>
<path style="fill:#011325; stroke:none;" d="M89 115L89 120C89.8299 117.97 89.8299 117.03 89 115z"/>
<path style="fill:#002d62; stroke:none;" d="M125 115L126 116L125 115z"/>
<path style="fill:#003570; stroke:none;" d="M148.333 116.667C148.278 116.722 148.222 117.778 148.667 117.333C148.722 117.278 148.778 116.222 148.333 116.667z"/>
<path style="fill:#003158; stroke:none;" d="M84 117L84 120C84.6961 118.446 84.6961 118.554 84 117z"/>
<path style="fill:#0a2149; stroke:none;" d="M124 117L125 118L124 117z"/>
<path style="fill:#09367e; stroke:none;" d="M165 117L166 118L165 117z"/>
<path style="fill:#005bc3; stroke:none;" d="M64.3333 118.667C64.2778 118.722 64.2222 119.778 64.6667 119.333C64.7223 119.278 64.7778 118.222 64.3333 118.667z"/>
<path style="fill:#024ba3; stroke:none;" d="M148.333 118.667C148.278 118.722 148.222 119.778 148.667 119.333C148.722 119.278 148.778 118.222 148.333 118.667z"/>
<path style="fill:#0052a1; stroke:none;" d="M164.333 118.667C164.278 118.722 164.222 119.778 164.667 119.333C164.722 119.278 164.778 118.222 164.333 118.667z"/>
<path style="fill:#002e58; stroke:none;" d="M166.333 118.667C166.278 118.722 166.222 119.778 166.667 119.333C166.722 119.278 166.778 118.222 166.333 118.667z"/>
<path style="fill:#002241; stroke:none;" d="M64.3333 120.667C64.2778 120.722 64.2222 121.778 64.6667 121.333C64.7223 121.278 64.7778 120.222 64.3333 120.667z"/>
<path style="fill:#012f65; stroke:none;" d="M89 120L89 128C90.1614 125.23 90.1614 122.77 89 120z"/>
<path style="fill:#015fc3; stroke:none;" d="M123.333 120.667C123.278 120.722 123.222 121.778 123.667 121.333C123.722 121.278 123.778 120.222 123.333 120.667z"/>
<path style="fill:#013265; stroke:none;" d="M128.333 120.667C128.278 120.722 128.222 121.778 128.667 121.333C128.722 121.278 128.778 120.222 128.333 120.667z"/>
<path style="fill:#093065; stroke:none;" d="M83.3333 122.667C83.2778 122.722 83.2222 123.778 83.6667 123.333C83.7222 123.278 83.7778 122.222 83.3333 122.667z"/>
<path style="fill:#003b77; stroke:none;" d="M122 122L123 123L122 122z"/>
<path style="fill:#003a75; stroke:none;" d="M147.333 122.667C147.278 122.722 147.222 123.778 147.667 123.333C147.722 123.278 147.778 122.222 147.333 122.667z"/>
<path style="fill:#004389; stroke:none;" d="M163 122L164 123L163 122z"/>
<path style="fill:#002a58; stroke:none;" d="M167 122L168 123L167 122z"/>
<path style="fill:#00326a; stroke:none;" d="M63.3333 124.667C63.2778 124.722 63.2222 125.778 63.6667 125.333C63.7222 125.278 63.7778 124.222 63.3333 124.667z"/>
<path style="fill:#005ac0; stroke:none;" d="M83.3333 124.667C83.2778 124.722 83.2222 125.778 83.6667 125.333C83.7222 125.278 83.7778 124.222 83.3333 124.667z"/>
<path style="fill:#002657; stroke:none;" d="M121 124L122 125L121 124z"/>
<path style="fill:#0062d2; stroke:none;" d="M147.333 124.667C147.278 124.722 147.222 125.778 147.667 125.333C147.722 125.278 147.778 124.222 147.333 124.667z"/>
<path style="fill:#0054b3; stroke:none;" d="M121 125L122 126L121 125z"/>
<path style="fill:#002b62; stroke:none;" d="M127 125L127 128C127.696 126.446 127.696 126.554 127 125z"/>
<path style="fill:#0745a0; stroke:none;" d="M162 125L163 126L162 125z"/>
<path style="fill:#033571; stroke:none;" d="M168 125L169 126L168 125z"/>
<path style="fill:#004386; stroke:none;" d="M120.333 126.667C120.278 126.722 120.222 127.778 120.667 127.333C120.722 127.278 120.778 126.222 120.333 126.667z"/>
<path style="fill:#004897; stroke:none;" d="M62 128L62 131C62.6961 129.446 62.6961 129.554 62 128z"/>
<path style="fill:#003e81; stroke:none;" d="M82.3333 128.667C82.2778 128.722 82.2222 129.778 82.6667 129.333C82.7222 129.278 82.7778 128.222 82.3333 128.667z"/>
<path style="fill:#0057b2; stroke:none;" d="M89 128L89 132C89.7102 130.241 89.7102 129.759 89 128z"/>
<path style="fill:#045ebf; stroke:none;" d="M126 128L126 131C126.696 129.446 126.696 129.554 126 128z"/>
<path style="fill:#024287; stroke:none;" d="M146 128L146 131C146.696 129.446 146.696 129.554 146 128z"/>
<path style="fill:#0c468b; stroke:none;" d="M161 128L162 129L161 128z"/>
<path style="fill:#00253e; stroke:none;" d="M169.333 128.667C169.278 128.722 169.222 129.778 169.667 129.333C169.722 129.278 169.778 128.222 169.333 128.667z"/>
<path style="fill:#023369; stroke:none;" d="M119 129L120 130L119 129z"/>
<path style="fill:#002044; stroke:none;" d="M161 129L162 130L161 129z"/>
<path style="fill:#005ec5; stroke:none;" d="M82.3333 130.667C82.2778 130.722 82.2222 131.778 82.6667 131.333C82.7222 131.278 82.7778 130.222 82.3333 130.667z"/>
<path style="fill:#001226; stroke:none;" d="M62.3333 131.667C62.2778 131.722 62.2222 132.778 62.6667 132.333C62.7223 132.278 62.7778 131.222 62.3333 131.667z"/>
<path style="fill:#062f74; stroke:none;" d="M118 131L119 132L118 131z"/>
<path style="fill:#021b3d; stroke:none;" d="M126.333 131.667C126.278 131.722 126.222 132.778 126.667 132.333C126.722 132.278 126.778 131.222 126.333 131.667z"/>
<path style="fill:#0052a9; stroke:none;" d="M160 131L161 132L160 131z"/>
<path style="fill:#002146; stroke:none;" d="M170.333 131.667C170.278 131.722 170.222 132.778 170.667 132.333C170.722 132.278 170.778 131.222 170.333 131.667z"/>
<path style="fill:#0152aa; stroke:none;" d="M61.3333 132.667C61.2778 132.722 61.2222 133.778 61.6667 133.333C61.7223 133.278 61.7778 132.222 61.3333 132.667z"/>
<path style="fill:#002b58; stroke:none;" d="M81.3333 132.667C81.2778 132.722 81.2222 133.778 81.6667 133.333C81.7222 133.278 81.7778 132.222 81.3333 132.667z"/>
<path style="fill:#016cd6; stroke:none;" d="M89 132L89 139C90.0595 136.466 90.0595 134.534 89 132z"/>
<path style="fill:#0065d2; stroke:none;" d="M125.333 132.667C125.278 132.722 125.222 133.778 125.667 133.333C125.722 133.278 125.778 132.222 125.333 132.667z"/>
<path style="fill:#013472; stroke:none;" d="M145 132L145 136C145.71 134.241 145.71 133.759 145 132z"/>
<path style="fill:#958d90; stroke:none;" d="M165 132L166 133L165 132z"/>
<path style="fill:#00264a; stroke:none;" d="M117 133L118 134L117 133z"/>
<path style="fill:#ffffff; stroke:none;" d="M165 133C163.816 138.119 162.242 148.889 157.582 151.972C153.309 154.799 143.974 153 139 153C143.018 157.085 151.759 160.28 153.454 166.015C155.04 171.376 149.809 179.52 149 185C155.121 181.188 160.525 176.221 167 173C169.962 178.272 176.91 181.858 182 185L176 164C181.885 161.557 186.515 157.155 192 154C186.346 151.628 178.496 155.242 173.278 151.972C167.974 148.649 168.222 138.12 165 133z"/>
<path style="fill:#03387c; stroke:none;" d="M61.3333 134.667C61.2778 134.722 61.2222 135.778 61.6667 135.333C61.7223 135.278 61.7778 134.222 61.3333 134.667z"/>
<path style="fill:#064495; stroke:none;" d="M81.3333 134.667C81.2778 134.722 81.2222 135.778 81.6667 135.333C81.7222 135.278 81.7778 134.222 81.3333 134.667z"/>
<path style="fill:#0556b0; stroke:none;" d="M117 134L118 135L117 134z"/>
<path style="fill:#0256ad; stroke:none;" d="M125.333 134.667C125.278 134.722 125.222 135.778 125.667 135.333C125.722 135.278 125.778 134.222 125.333 134.667z"/>
<path style="fill:#0053aa; stroke:none;" d="M159 134L160 135L159 134z"/>
<path style="fill:#504f4d; stroke:none;" d="M164 134L165 135L164 134z"/>
<path style="fill:#666a5e; stroke:none;" d="M166 134L167 135L166 134z"/>
<path style="fill:#002e68; stroke:none;" d="M171.333 134.667C171.278 134.722 171.222 135.778 171.667 135.333C171.722 135.278 171.778 134.222 171.333 134.667z"/>
<path style="fill:#003169; stroke:none;" d="M159 135L160 136L159 135z"/>
<path style="fill:#a6b3a7; stroke:none;" d="M164 135L165 136L164 135z"/>
<path style="fill:#c4bcbc; stroke:none;" d="M166 135L167 136L166 135z"/>
<path style="fill:#0160ca; stroke:none;" d="M116.333 136.667C116.278 136.722 116.222 137.778 116.667 137.333C116.722 137.278 116.778 136.222 116.333 136.667z"/>
<path style="fill:#041a31; stroke:none;" d="M125.333 136.667C125.278 136.722 125.222 137.778 125.667 137.333C125.722 137.278 125.778 136.222 125.333 136.667z"/>
<path style="fill:#3c3c3c; stroke:none;" d="M163 137L164 138L163 137z"/>
<path style="fill:#464746; stroke:none;" d="M167 137L168 138L167 137z"/>
<path style="fill:#0253a7; stroke:none;" d="M172 137L173 138L172 137z"/>
<path style="fill:#06468f; stroke:none;" d="M60.3333 138.667C60.2778 138.722 60.2222 139.778 60.6667 139.333C60.7223 139.278 60.7778 138.222 60.3333 138.667z"/>
<path style="fill:#043979; stroke:none;" d="M80.3333 138.667C80.2778 138.722 80.2222 139.778 80.6667 139.333C80.7222 139.278 80.7778 138.222 80.3333 138.667z"/>
<path style="fill:#003c80; stroke:none;" d="M115 138L116 139L115 138z"/>
<path style="fill:#002e63; stroke:none;" d="M158 138L159 139L158 138z"/>
<path style="fill:#acacac; stroke:none;" d="M163 138L164 139L163 138z"/>
<path style="fill:#b5b5b5; stroke:none;" d="M167 138L168 139L167 138z"/>
<path style="fill:#041326; stroke:none;" d="M172.333 138.667C172.278 138.722 172.222 139.778 172.667 139.333C172.722 139.278 172.778 138.222 172.333 138.667z"/>
<path style="fill:#021936; stroke:none;" d="M90 139L90 148C91.2561 145.006 91.2561 141.994 90 139z"/>
<path style="fill:#064386; stroke:none;" d="M124.333 139.667C124.278 139.722 124.222 140.778 124.667 140.333C124.722 140.278 124.778 139.222 124.333 139.667z"/>
<path style="fill:#04408b; stroke:none;" d="M144.333 139.667C144.278 139.722 144.222 140.778 144.667 140.333C144.722 140.278 144.778 139.222 144.333 139.667z"/>
<path style="fill:#061327; stroke:none;" d="M60.3333 140.667C60.2778 140.722 60.2222 141.778 60.6667 141.333C60.7223 141.278 60.7778 140.222 60.3333 140.667z"/>
<path style="fill:#003168; stroke:none;" d="M114 140L115 141L114 140z"/>
<path style="fill:#363636; stroke:none;" d="M162 140L163 141L162 140z"/>
<path style="fill:#383b34; stroke:none;" d="M168 140L169 141L168 140z"/>
<path style="fill:#0850ad; stroke:none;" d="M173 140L174 141L173 140z"/>
<path style="fill:#0067db; stroke:none;" d="M59 141L59 144C59.6961 142.446 59.6961 142.554 59 141z"/>
<path style="fill:#003975; stroke:none;" d="M157 141L158 142L157 141z"/>
<path style="fill:#919191; stroke:none;" d="M162 141L163 142L162 141z"/>
<path style="fill:#9da099; stroke:none;" d="M168 141L169 142L168 141z"/>
<path style="fill:#001723; stroke:none;" d="M173.333 141.667C173.278 141.722 173.222 142.778 173.667 142.333C173.722 142.278 173.778 141.222 173.333 141.667z"/>
<path style="fill:#004594; stroke:none;" d="M113.333 142.667C113.278 142.722 113.222 143.778 113.667 143.333C113.722 143.278 113.778 142.222 113.333 142.667z"/>
<path style="fill:#002043; stroke:none;" d="M59.3333 144.667C59.2778 144.722 59.2222 145.778 59.6667 145.333C59.7223 145.278 59.7778 144.222 59.3333 144.667z"/>
<path style="fill:#064d8c; stroke:none;" d="M79.3333 144.667C79.2778 144.722 79.2222 145.778 79.6667 145.333C79.7222 145.278 79.7778 144.222 79.3333 144.667z"/>
<path style="fill:#011f4b; stroke:none;" d="M112 144L113 145L112 144z"/>
<path style="fill:#003b7d; stroke:none;" d="M123.333 144.667C123.278 144.722 123.222 145.778 123.667 145.333C123.722 145.278 123.778 144.222 123.333 144.667z"/>
<path style="fill:#093474; stroke:none;" d="M143 144L143 148C143.71 146.241 143.71 145.759 143 144z"/>
<path style="fill:#e4e4e4; stroke:none;" d="M161.333 144.667C161.278 144.722 161.222 145.778 161.667 145.333C161.722 145.278 161.778 144.222 161.333 144.667z"/>
<path style="fill:#cccccf; stroke:none;" d="M169.333 144.667C169.278 144.722 169.222 145.778 169.667 145.333C169.722 145.278 169.778 144.222 169.333 144.667z"/>
<path style="fill:#081f36; stroke:none;" d="M174.333 144.667C174.278 144.722 174.222 145.778 174.667 145.333C174.722 145.278 174.778 144.222 174.333 144.667z"/>
<path style="fill:#04448e; stroke:none;" d="M112 145L113 146L112 145z"/>
<path style="fill:#0566c7; stroke:none;" d="M155.333 145.667C155.278 145.722 155.222 146.778 155.667 146.333C155.722 146.278 155.778 145.222 155.333 145.667z"/>
<path style="fill:#065ac3; stroke:none;" d="M79.3333 146.667C79.2778 146.722 79.2222 147.778 79.6667 147.333C79.7222 147.278 79.7778 146.222 79.3333 146.667z"/>
<path style="fill:#001c33; stroke:none;" d="M123.333 146.667C123.278 146.722 123.222 147.778 123.667 147.333C123.722 147.278 123.778 146.222 123.333 146.667z"/>
<path style="fill:#323232; stroke:none;" d="M160 146L161 147L160 146z"/>
<path style="fill:#2f3b37; stroke:none;" d="M170 146L171 147L170 146z"/>
<path style="fill:#2f0726; stroke:none;" d="M248 146L248 182C248 186.068 246.741 192.152 250 195C248.615 184.043 249 173.041 249 162C249 156.92 249.981 150.72 248 146z"/>
<path style="fill:#3a0c2d; stroke:none;" d="M249 146L249 192C250.661 188.041 250 183.26 250 179L250 158C250 154.017 250.552 149.699 249 146z"/>
<path style="fill:#051c46; stroke:none;" d="M110.667 147.333C110.222 147.778 111.278 147.722 111.333 147.667C111.778 147.222 110.722 147.278 110.667 147.333z"/>
<path style="fill:#015fc8; stroke:none;" d="M144 147C147.432 148.44 151.3 148 155 148C151.568 146.56 147.7 147 144 147z"/>
<path style="fill:#00396e; stroke:none;" d="M155 147L156 148L155 147z"/>
<path style="fill:#9b9b9b; stroke:none;" d="M160 147L161 148L160 147z"/>
<path style="fill:#777f7f; stroke:none;" d="M170 147L171 148L170 147z"/>
<path style="fill:#023672; stroke:none;" d="M175 147L176 148L175 147z"/>
<path style="fill:#015fc8; stroke:none;" d="M176 147C185.415 150.951 197.933 146.603 208 149C205.724 146.396 202.317 147.001 199 147L176 147z"/>
<path style="fill:#053868; stroke:none;" d="M61 148L62 149L61 148z"/>
<path style="fill:#06306c; stroke:none;" d="M76 148L77 149L76 148z"/>
<path style="fill:#004dac; stroke:none;" d="M92 148L93 149L92 148z"/>
<path style="fill:#004b97; stroke:none;" d="M109 148L110 149L109 148z"/>
<path style="fill:#00488a; stroke:none;" d="M123 148L124 149L123 148z"/>
<path style="fill:#bdbec4; stroke:none;" d="M170 148L171 149L170 148z"/>
<path style="fill:#002755; stroke:none;" d="M125 149L126 150L125 149z"/>
<path style="fill:#39322d; stroke:none;" d="M171 149L172 150L171 149z"/>
<path style="fill:#002550; stroke:none;" d="M205 149L206 150L205 149z"/>
<path style="fill:#003d78; stroke:none;" d="M126 150L127 151L126 150z"/>
<path style="fill:#96908c; stroke:none;" d="M159 150L160 151L159 150z"/>
<path style="fill:#857e7a; stroke:none;" d="M171 150L172 151L171 150z"/>
<path style="fill:#00397e; stroke:none;" d="M204 150L205 151L204 150z"/>
<path style="fill:#015cbd; stroke:none;" d="M127 151L128 152L127 151z"/>
<path style="fill:#b8b2b4; stroke:none;" d="M171 151L172 152L171 151z"/>
<path style="fill:#0559ad; stroke:none;" d="M203 151L204 152L203 151z"/>
<path style="fill:#002e65; stroke:none;" d="M129 152L130 153L129 152z"/>
<path style="fill:#373442; stroke:none;" d="M137 152L138 153L137 152z"/>
<path style="fill:#7f7f7f; stroke:none;" d="M138 154C144.818 152.377 152.029 153 159 153C154.508 151.115 141.349 150.168 138 154z"/>
<path style="fill:#808080; stroke:none;" d="M172 152C177.959 154.5 186.564 153 193 153C187.041 150.5 178.436 152 172 152z"/>
<path style="fill:#04366f; stroke:none;" d="M201 152L202 153L201 152z"/>
<path style="fill:#00428f; stroke:none;" d="M130 153L131 154L130 153z"/>
<path style="fill:#3d434f; stroke:none;" d="M192 153L193 154L192 153z"/>
<path style="fill:#006bdc; stroke:none;" d="M200.667 153.333C200.222 153.778 201.278 153.722 201.333 153.667C201.778 153.222 200.722 153.278 200.667 153.333z"/>
<path style="fill:#0055b7; stroke:none;" d="M131 154L132 155L131 154z"/>
<path style="fill:#3f3c3d; stroke:none;" d="M139 154L140 155L139 154z"/>
<path style="fill:#b7bebe; stroke:none;" d="M140 154L141 155L140 154z"/>
<path style="fill:#9c9c9c; stroke:none;" d="M190 154L191 155L190 154z"/>
<path style="fill:#00234b; stroke:none;" d="M198 154L199 155L198 154z"/>
<path style="fill:#0453bb; stroke:none;" d="M199 154L200 155L199 154z"/>
<path style="fill:#00295c; stroke:none;" d="M133 155L134 156L133 155z"/>
<path style="fill:#7a8d8e; stroke:none;" d="M141 155L142 156L141 155z"/>
<path style="fill:#7f7f7f; stroke:none;" d="M189 155L190 156L189 155z"/>
<path style="fill:#00386b; stroke:none;" d="M197 155L198 156L197 155z"/>
<path style="fill:#00468f; stroke:none;" d="M134 156L135 157L134 156z"/>
<path style="fill:#585952; stroke:none;" d="M142 156L143 157L142 156z"/>
<path style="fill:#d1d1d1; stroke:none;" d="M187 156L188 157L187 156z"/>
<path style="fill:#464646; stroke:none;" d="M188 156L189 157L188 156z"/>
<path style="fill:#084ea8; stroke:none;" d="M196 156L197 157L196 156z"/>
<path style="fill:#072445; stroke:none;" d="M136 157L137 158L136 157z"/>
<path style="fill:#b2b2b2; stroke:none;" d="M144 157L145 158L144 157z"/>
<path style="fill:#909090; stroke:none;" d="M186 157L187 158L186 157z"/>
<path style="fill:#002657; stroke:none;" d="M194 157L195 158L194 157z"/>
<path style="fill:#114889; stroke:none;" d="M137 158L138 159L137 158z"/>
<path style="fill:#666666; stroke:none;" d="M145 158L146 159L145 158z"/>
<path style="fill:#7e7e7e; stroke:none;" d="M185 158L186 159L185 158z"/>
<path style="fill:#1b1b1b; stroke:none;" d="M189.667 158.333C189.222 158.778 190.278 158.722 190.333 158.667C190.778 158.222 189.722 158.278 189.667 158.333z"/>
<path style="fill:#083875; stroke:none;" d="M193 158L194 159L193 158z"/>
<path style="fill:#004da6; stroke:none;" d="M138 159L139 160L138 159z"/>
<path style="fill:#353534; stroke:none;" d="M146 159L147 160L146 159z"/>
<path style="fill:#cbcaca; stroke:none;" d="M147 159L148 160L147 159z"/>
<path style="fill:#00305c; stroke:none;" d="M140 160L141 161L140 160z"/>
<path style="fill:#7b7c83; stroke:none;" d="M148 160L149 161L148 160z"/>
<path style="fill:#7a7a6f; stroke:none;" d="M182 160L183 161L182 160z"/>
<path style="fill:#00336b; stroke:none;" d="M190 160L191 161L190 160z"/>
<path style="fill:#033e90; stroke:none;" d="M141 161L142 162L141 161z"/>
<path style="fill:#55615d; stroke:none;" d="M149 161L150 162L149 161z"/>
<path style="fill:#c4cbcf; stroke:none;" d="M150 161L151 162L150 161z"/>
<path style="fill:#c9c8c3; stroke:none;" d="M180 161L181 162L180 161z"/>
<path style="fill:#46454e; stroke:none;" d="M181 161L182 162L181 161z"/>
<path style="fill:#005099; stroke:none;" d="M189 161L190 162L189 161z"/>
<path style="fill:#004ea6; stroke:none;" d="M142 162L143 163L142 162z"/>
<path style="fill:#333330; stroke:none;" d="M150 162L151 163L150 162z"/>
<path style="fill:#adafae; stroke:none;" d="M151 162L152 163L151 162z"/>
<path style="fill:#93958f; stroke:none;" d="M179 162L180 163L179 162z"/>
<path style="fill:#04224d; stroke:none;" d="M187 162L188 163L187 162z"/>
<path style="fill:#00244c; stroke:none;" d="M144 163L145 164L144 163z"/>
<path style="fill:#8a8a8a; stroke:none;" d="M152 163L153 164L152 163z"/>
<path style="fill:#787577; stroke:none;" d="M178 163L179 164L178 163z"/>
<path style="fill:#053c78; stroke:none;" d="M186 163L187 164L186 163z"/>
<path style="fill:#06468e; stroke:none;" d="M145 164L146 165L145 164z"/>
<path style="fill:#343434; stroke:none;" d="M153 164L154 165L153 164z"/>
<path style="fill:#cfcec8; stroke:none;" d="M176 164L177 165L176 164z"/>
<path style="fill:#014b9c; stroke:none;" d="M185 164L186 165L185 164z"/>
<path style="fill:#005dc1; stroke:none;" d="M146 165L147 166L146 165z"/>
<path style="fill:#001e44; stroke:none;" d="M147 165L148 166L147 165z"/>
<path style="fill:#989898; stroke:none;" d="M154 165L155 166L154 165z"/>
<path style="fill:#71706a; stroke:none;" d="M176 165L177 166L176 165z"/>
<path style="fill:#002143; stroke:none;" d="M183 165L184 166L183 165z"/>
<path style="fill:#023568; stroke:none;" d="M148 166L149 167L148 166z"/>
<path style="fill:#d1d1d1; stroke:none;" d="M154 166L155 167L154 166z"/>
<path style="fill:#abada5; stroke:none;" d="M176 166L177 167L176 166z"/>
<path style="fill:#025cd1; stroke:none;" d="M182 166L182 169C183.015 167.861 183.309 167.388 184 166L182 166z"/>
<path style="fill:#042745; stroke:none;" d="M148.333 168.667C148.278 168.722 148.222 169.778 148.667 169.333C148.722 169.278 148.778 168.222 148.333 168.667z"/>
<path style="fill:#8a8a8a; stroke:none;" d="M153 168L154 169L153 168z"/>
<path style="fill:#979ca0; stroke:none;" d="M177.333 168.667C177.278 168.722 177.222 169.778 177.667 169.333C177.722 169.278 177.778 168.222 177.333 168.667z"/>
<path style="fill:#c8c8c8; stroke:none;" d="M153 169L154 170L153 169z"/>
<path style="fill:#0a3563; stroke:none;" d="M182 169L183 170L182 169z"/>
<path style="fill:#004798; stroke:none;" d="M147 171L148 172L147 171z"/>
<path style="fill:#525352; stroke:none;" d="M152 171L153 172L152 171z"/>
<path style="fill:#57485b; stroke:none;" d="M178 171L179 172L178 171z"/>
<path style="fill:#c5c5c5; stroke:none;" d="M152 172L153 173L152 172z"/>
<path style="fill:#9d90a6; stroke:none;" d="M178 172L179 173L178 172z"/>
<path style="fill:#093361; stroke:none;" d="M183 172L184 173L183 172z"/>
<path style="fill:#e4e4e4; stroke:none;" d="M165.667 173.333C165.222 173.778 166.278 173.722 166.333 173.667C166.778 173.222 165.722 173.278 165.667 173.333z"/>
<path style="fill:#003572; stroke:none;" d="M146.333 174.667C146.278 174.722 146.222 175.778 146.667 175.333C146.722 175.278 146.778 174.222 146.333 174.667z"/>
<path style="fill:#46473f; stroke:none;" d="M151 174L152 175L151 174z"/>
<path style="fill:#cbcbcb; stroke:none;" d="M163 174L164 175L163 174z"/>
<path style="fill:#393939; stroke:none;" d="M164 174L165 175L164 174z"/>
<path style="fill:#494949; stroke:none;" d="M166 174L167 175L166 174z"/>
<path style="fill:#4c4a4b; stroke:none;" d="M179 174L180 175L179 174z"/>
<path style="fill:#9d9e88; stroke:none;" d="M151 175L152 176L151 175z"/>
<path style="fill:#9f9f9f; stroke:none;" d="M162 175L163 176L162 175z"/>
<path style="fill:#6f7c75; stroke:none;" d="M179 175L180 176L179 175z"/>
<path style="fill:#034a94; stroke:none;" d="M184 175L185 176L184 175z"/>
<path style="fill:#504e52; stroke:none;" d="M161 176L162 177L161 176z"/>
<path style="fill:#6f6e74; stroke:none;" d="M169 176L170 177L169 176z"/>
<path style="fill:#313635; stroke:none;" d="M150 177L151 178L150 177z"/>
<path style="fill:#b5b6b0; stroke:none;" d="M159 177L160 178L159 177z"/>
<path style="fill:#333a3d; stroke:none;" d="M170 177L171 178L170 177z"/>
<path style="fill:#b7b7c2; stroke:none;" d="M171 177L172 178L171 177z"/>
<path style="fill:#00265c; stroke:none;" d="M145 178L146 179L145 178z"/>
<path style="fill:#9fa19d; stroke:none;" d="M150 178L151 179L150 178z"/>
<path style="fill:#7b7d79; stroke:none;" d="M158 178L159 179L158 178z"/>
<path style="fill:#938b91; stroke:none;" d="M172 178L173 179L172 178z"/>
<path style="fill:#858585; stroke:none;" d="M180 178L181 179L180 178z"/>
<path style="fill:#00387c; stroke:none;" d="M185 178L186 179L185 178z"/>
<path style="fill:#d1d4da; stroke:none;" d="M156 179L157 180L156 179z"/>
<path style="fill:#4b5054; stroke:none;" d="M157 179L158 180L157 179z"/>
<path style="fill:#093064; stroke:none;" d="M164 179C165.248 179.685 165.548 179.749 167 180C165.752 179.315 165.452 179.251 164 179z"/>
<path style="fill:#635c62; stroke:none;" d="M173 179L174 180L173 179z"/>
<path style="fill:#9a9ea4; stroke:none;" d="M155 180L156 181L155 180z"/>
<path style="fill:#002751; stroke:none;" d="M163 180L164 181L163 180z"/>
<path style="fill:#022f5e; stroke:none;" d="M167 180L168 181L167 180z"/>
<path style="fill:#332d28; stroke:none;" d="M174 180L175 181L174 180z"/>
<path style="fill:#b8b2b7; stroke:none;" d="M175 180L176 181L175 180z"/>
<path style="fill:#00397d; stroke:none;" d="M144 181L145 182L144 181z"/>
<path style="fill:#737670; stroke:none;" d="M149 181L150 182L149 181z"/>
<path style="fill:#666967; stroke:none;" d="M154 181L155 182L154 181z"/>
<path style="fill:#004897; stroke:none;" d="M162 181L163 182L162 181z"/>
<path style="fill:#003b7d; stroke:none;" d="M168 181L169 182L168 181z"/>
<path style="fill:#757676; stroke:none;" d="M176 181L177 182L176 181z"/>
<path style="fill:#5b5b5b; stroke:none;" d="M181 181L182 182L181 181z"/>
<path style="fill:#044b96; stroke:none;" d="M186 181L187 182L186 181z"/>
<path style="fill:#d4ccd1; stroke:none;" d="M152 182L153 183L152 182z"/>
<path style="fill:#444441; stroke:none;" d="M153 182L154 183L153 182z"/>
<path style="fill:#082942; stroke:none;" d="M160 182L161 183L160 182z"/>
<path style="fill:#0356b2; stroke:none;" d="M161 182L162 183L161 182z"/>
<path style="fill:#1068b9; stroke:none;" d="M169 182L170 183L169 182z"/>
<path style="fill:#585858; stroke:none;" d="M177 182L178 183L177 182z"/>
<path style="fill:#bbbbbb; stroke:none;" d="M178 182L179 183L178 182z"/>
<path style="fill:#cbcbcb; stroke:none;" d="M181 182L182 183L181 182z"/>
<path style="fill:#b3b6b4; stroke:none;" d="M151 183L152 184L151 183z"/>
<path style="fill:#062d54; stroke:none;" d="M171 183L172 184L171 183z"/>
<path style="fill:#b3b3b3; stroke:none;" d="M179 183L180 184L179 183z"/>
<path style="fill:#00213c; stroke:none;" d="M143.333 184.667C143.278 184.722 143.222 185.778 143.667 185.333C143.722 185.278 143.778 184.222 143.333 184.667z"/>
<path style="fill:#a8a6a0; stroke:none;" d="M148 184L149 185L148 184z"/>
<path style="fill:#424149; stroke:none;" d="M150 184L151 185L150 184z"/>
<path style="fill:#0154b7; stroke:none;" d="M158 184L159 185L158 184z"/>
<path style="fill:#004ba3; stroke:none;" d="M172 184L173 185L172 184z"/>
<path style="fill:#596370; stroke:none;" d="M180 184L181 185L180 184z"/>
<path style="fill:#53505f; stroke:none;" d="M182 184L181 186L183 186C183 184.147 183.3 184.65 182 184z"/>
<path style="fill:#002a5c; stroke:none;" d="M187.333 184.667C187.278 184.722 187.222 185.778 187.667 185.333C187.722 185.278 187.778 184.222 187.333 184.667z"/>
<path style="fill:#3a413b; stroke:none;" d="M148.667 185.333C148.222 185.778 149.278 185.722 149.333 185.667C149.778 185.222 148.722 185.278 148.667 185.333z"/>
<path style="fill:#002559; stroke:none;" d="M156 185L157 186L156 185z"/>
<path style="fill:#032355; stroke:none;" d="M174 185L175 186L174 185z"/>
<path style="fill:#004080; stroke:none;" d="M155 186L156 187L155 186z"/>
<path style="fill:#003b73; stroke:none;" d="M175 186L176 187L175 186z"/>
<path style="fill:#004694; stroke:none;" d="M142 187L143 188L142 187z"/>
<path style="fill:#004ea9; stroke:none;" d="M154 187L155 188L154 187z"/>
<path style="fill:#0b4b9d; stroke:none;" d="M176 187L177 188L176 187z"/>
<path style="fill:#0052a9; stroke:none;" d="M188 187L189 188L188 187z"/>
<path style="fill:#00366b; stroke:none;" d="M152 188L153 189L152 188z"/>
<path style="fill:#002259; stroke:none;" d="M178 188L179 189L178 188z"/>
<path style="fill:#000b26; stroke:none;" d="M188.333 188.667C188.278 188.722 188.222 189.778 188.667 189.333C188.722 189.278 188.778 188.222 188.333 188.667z"/>
<path style="fill:#074698; stroke:none;" d="M151 189L152 190L151 189z"/>
<path style="fill:#00408a; stroke:none;" d="M179 189L180 190L179 189z"/>
<path style="fill:#00336f; stroke:none;" d="M141.333 190.667C141.278 190.722 141.222 191.778 141.667 191.333C141.722 191.278 141.778 190.222 141.333 190.667z"/>
<path style="fill:#035ebf; stroke:none;" d="M150 190L151 191L150 190z"/>
<path style="fill:#0056b4; stroke:none;" d="M180 190L181 191L180 190z"/>
<path style="fill:#00448c; stroke:none;" d="M189.333 190.667C189.278 190.722 189.222 191.778 189.667 191.333C189.722 191.278 189.778 190.222 189.333 190.667z"/>
<path style="fill:#002d64; stroke:none;" d="M148 191L149 192L148 191z"/>
<path style="fill:#002458; stroke:none;" d="M182 191L183 192L182 191z"/>
<path style="fill:#0b4eae; stroke:none;" d="M147 192L148 193L147 192z"/>
<path style="fill:#03479e; stroke:none;" d="M140 193L141 194L140 193z"/>
<path style="fill:#002548; stroke:none;" d="M145 193L146 194L145 193z"/>
<path style="fill:#0050a0; stroke:none;" d="M184 193L185 194L184 193z"/>
<path style="fill:#00264a; stroke:none;" d="M185 193L186 194L185 193z"/>
<path style="fill:#1b010c; stroke:none;" d="M248 195C248 207.885 247.246 219.104 239.366 230C235.154 235.824 226.153 240.264 224 247C226.87 246.161 229.025 245.652 232 246C235.155 243.885 238.591 243.916 240 240L250 240L250 195L248 195z"/>
<path style="fill:#040112; stroke:none;" d="M0 204L0 219C4.88013 215.836 2.629 208.977 2 204L0 204z"/>
<path style="fill:#004495; stroke:none;" d="M9 208L9 211C9.6961 209.446 9.6961 209.554 9 208z"/>
<path style="fill:#014697; stroke:none;" d="M240 208L240 211C240.696 209.446 240.696 209.554 240 208z"/>
<path style="fill:#012044; stroke:none;" d="M9.33333 211.667C9.27776 211.722 9.22223 212.778 9.66667 212.333C9.72222 212.278 9.77779 211.222 9.33333 211.667z"/>
<path style="fill:#014692; stroke:none;" d="M10 213L10 216C10.6961 214.446 10.6961 214.554 10 213z"/>
<path style="fill:#02285b; stroke:none;" d="M239.333 214.667C239.278 214.722 239.222 215.778 239.667 215.333C239.722 215.278 239.778 214.222 239.333 214.667z"/>
<path style="fill:#055ebc; stroke:none;" d="M11 217L12 218L11 217z"/>
<path style="fill:#015cbe; stroke:none;" d="M238 217L239 218L238 217z"/>
<path style="fill:#00355f; stroke:none;" d="M11 218L12 219L11 218z"/>
<path style="fill:#003775; stroke:none;" d="M238 218L239 219L238 218z"/>
<path style="fill:#003b6f; stroke:none;" d="M12 220L13 221L12 220z"/>
<path style="fill:#02346d; stroke:none;" d="M237 220L238 221L237 220z"/>
<path style="fill:#0054b7; stroke:none;" d="M13 221L14 222L13 221z"/>
<path style="fill:#005abb; stroke:none;" d="M236 221L237 222L236 221z"/>
<path style="fill:#001f44; stroke:none;" d="M13 222L14 223L13 222z"/>
<path style="fill:#00274c; stroke:none;" d="M236 222L237 223L236 222z"/>
<path style="fill:#013d77; stroke:none;" d="M15 225L16 226L15 225z"/>
<path style="fill:#003c7f; stroke:none;" d="M234 225L235 226L234 225z"/>
<path style="fill:#0253b6; stroke:none;" d="M16 226L17 227L16 226z"/>
<path style="fill:#014591; stroke:none;" d="M233 226L234 227L233 226z"/>
<path style="fill:#005bb9; stroke:none;" d="M17 227L18 228L17 227z"/>
<path style="fill:#004fb3; stroke:none;" d="M232 227L233 228L232 227z"/>
<path style="fill:#001f46; stroke:none;" d="M18 229L19 230L18 229z"/>
<path style="fill:#002a47; stroke:none;" d="M231 229L232 230L231 229z"/>
<path style="fill:#003268; stroke:none;" d="M19 230L20 231L19 230z"/>
<path style="fill:#002e6a; stroke:none;" d="M230 230L231 231L230 230z"/>
<path style="fill:#003268; stroke:none;" d="M20 231L21 232L20 231z"/>
<path style="fill:#05254d; stroke:none;" d="M229 231L230 232L229 231z"/>
<path style="fill:#0a55b4; stroke:none;" d="M22 232L23 233L22 232z"/>
<path style="fill:#0152b7; stroke:none;" d="M227 232L228 233L227 232z"/>
<path style="fill:#002044; stroke:none;" d="M22 233L23 234L22 233z"/>
<path style="fill:#004186; stroke:none;" d="M23 233L24 234L23 233z"/>
<path style="fill:#014a97; stroke:none;" d="M226 233L227 234L226 233z"/>
<path style="fill:#003d89; stroke:none;" d="M225 234L226 235L225 234z"/>
<path style="fill:#021d44; stroke:none;" d="M25 235L26 236L25 235z"/>
<path style="fill:#025cbf; stroke:none;" d="M26 235L27 236L26 235z"/>
<path style="fill:#002f62; stroke:none;" d="M27 236L28 237L27 236z"/>
<path style="fill:#002957; stroke:none;" d="M222 236L223 237L222 236z"/>
<path style="fill:#04397a; stroke:none;" d="M29 237L30 238L29 237z"/>
<path style="fill:#003269; stroke:none;" d="M220 237L221 238L220 237z"/>
<path style="fill:#062548; stroke:none;" d="M31 238L32 239L31 238z"/>
<path style="fill:#0058b9; stroke:none;" d="M217 238L218 239L217 238z"/>
<path style="fill:#002b65; stroke:none;" d="M218 238L219 239L218 238z"/>
<path style="fill:#022e5d; stroke:none;" d="M34 239L35 240L34 239z"/>
<path style="fill:#0053a4; stroke:none;" d="M214 239L215 240L214 239z"/>
<path style="fill:#002d62; stroke:none;" d="M215 239L216 240L215 239z"/>
<path style="fill:#013a7a; stroke:none;" d="M37.6667 240.333C37.2222 240.778 38.2778 240.722 38.3333 240.667C38.7778 240.222 37.7222 240.278 37.6667 240.333z"/>
<path style="fill:#005dbe; stroke:none;" d="M39 240C40.2484 240.685 40.5484 240.749 42 241C40.7517 240.315 40.4516 240.251 39 240z"/>
<path style="fill:#008cff; stroke:none;" d="M45 240C49.7199 241.981 55.9198 241 61 241L93 241L205 241C200.28 239.019 194.08 240 189 240L157 240L45 240z"/>
<path style="fill:#015abc; stroke:none;" d="M208 240C209.248 240.685 209.548 240.749 211 241C209.752 240.315 209.452 240.251 208 240z"/>
<path style="fill:#001b39; stroke:none;" d="M211.667 240.333C211.222 240.778 212.278 240.722 212.333 240.667C212.778 240.222 211.722 240.278 211.667 240.333z"/>
<path style="fill:#10000a; stroke:none;" d="M240 240C238.043 243.772 234.085 242.999 232 246C228.815 245.258 227.018 245.738 224 247C222.859 241.674 210.738 247.956 206 248C190.003 248.148 173.998 248 158 248C153.003 248 144.654 246.093 142 251L250 251L250 240L240 240z"/>
</svg>
